<svg width="161" height="50" viewBox="0 0 161 50" fill="none" xmlns="http://www.w3.org/2000/svg">
<path fill-rule="evenodd" clip-rule="evenodd" d="M83.1535 27.6397C82.6842 27.984 82.3894 27.8702 82.1438 27.4231C81.7345 26.679 81.4315 25.9626 81.83 25.049C82.8997 22.5972 84.2288 20.3286 86.1145 18.4349C86.3874 18.1572 86.6194 17.8795 86.895 17.6185C87.1124 17.4471 87.3413 17.2912 87.58 17.152C87.7246 17.3242 87.9157 17.4519 87.9429 17.6102C87.9522 17.8184 87.907 18.0253 87.812 18.21C86.8704 20.5119 85.9453 22.8221 84.9574 25.1018C84.5426 26.0598 84.0405 26.9872 83.1535 27.6397ZM145.017 27.6397C144.548 27.984 144.253 27.8702 144.008 27.4231C143.598 26.679 143.295 25.9626 143.694 25.049C144.764 22.5972 146.093 20.3286 147.978 18.4349C148.251 18.1572 148.483 17.8795 148.759 17.6185C148.976 17.4471 149.205 17.2912 149.444 17.152C149.588 17.3242 149.78 17.4519 149.807 17.6102C149.816 17.8184 149.771 18.0253 149.676 18.21C148.732 20.5091 147.809 22.8193 146.821 25.099C146.406 26.0598 145.904 26.9872 145.017 27.6397ZM124.528 9.03564C124.707 9.35849 124.951 9.63915 125.244 9.85919C125.537 10.0792 125.873 10.2337 126.229 10.3123C126.585 10.391 126.953 10.3922 127.309 10.3157C127.666 10.2392 128.002 10.0869 128.297 9.86866C129.517 8.89335 130.47 7.61612 131.067 6.15895C131.539 5.08436 131.361 4.34297 130.447 3.55716C129.563 2.77304 128.445 2.31351 127.273 2.2521C126.657 2.19101 126.182 2.40204 125.939 2.98515C125.284 4.63175 124.574 6.26724 124.383 8.05823C124.341 8.39076 124.392 8.72873 124.531 9.03287L124.528 9.03564ZM105.698 33.7319C104.516 34.6871 103.04 34.426 102.052 33.121C101.645 32.5823 101.435 32.0325 101.752 31.4161C102.529 29.8972 103.22 28.32 104.074 26.8511C105.324 24.7019 106.59 22.55 108.034 20.5424C108.915 19.3123 110.113 18.321 111.224 17.2825C111.497 17.0382 112.065 16.8494 112.351 17.0049C112.638 17.1603 112.731 17.7351 112.935 18.1822C112.75 19.5372 112.662 20.9173 112.359 22.239C112.051 23.7762 111.615 25.2839 111.055 26.7456C110.558 27.9674 109.745 29.0309 109.095 30.1804C108.255 31.6382 106.978 32.6906 105.698 33.7291V33.7319ZM32.5441 34.5649C31.9983 34.8759 31.7254 34.7537 31.4307 34.1428C31.3602 34.027 31.306 33.9018 31.2697 33.7707C31.2287 33.5097 31.2205 33.2459 31.1987 32.9821L31.0868 32.9627C31.1389 32.3582 31.2208 31.7567 31.3324 31.1606C31.8237 29.0808 32.7542 27.2426 33.8377 25.46C34.9556 23.5333 36.2671 21.7298 37.7511 20.0787C38.8918 18.8569 40.098 17.7074 41.5471 16.8632C42.2703 16.4412 43.16 16.6772 43.6866 17.4408C43.8447 17.6207 43.9336 17.8526 43.9371 18.0939C43.9406 18.3351 43.8585 18.5696 43.7057 18.7542C42.1884 20.9256 40.7038 23.122 39.2356 25.3295C37.7674 27.537 36.3975 29.7001 34.9456 31.8603C34.4377 32.5801 33.8911 33.2707 33.3082 33.929C33.0929 34.1877 32.8354 34.4065 32.5468 34.576L32.5441 34.5649ZM57.9239 27.798C58.2295 30.1638 57.3781 32.1186 55.6561 33.668C55.012 34.2483 54.0951 34.1872 53.2682 34.2761C53.0591 34.287 52.8496 34.287 52.6405 34.2761L52.6187 34.4122C51.9255 34.2817 51.2187 34.2011 50.5446 34.004C49.6905 33.7541 49.5213 33.1571 50.1271 32.4685C50.6099 31.9398 51.1377 31.4557 51.7045 31.0218C53.3119 29.7445 54.9356 28.4922 56.5621 27.2399C57.3098 26.6817 57.812 26.865 57.9321 27.8091L57.9239 27.798ZM43.2964 4.91776C44.0714 4.91776 44.5572 5.19543 44.882 5.90905C45.2694 6.67985 45.4385 7.54511 45.3704 8.4081C45.2913 9.18003 45.0075 9.53823 44.2352 9.69928C43.2777 9.92878 42.3056 10.0902 41.3261 10.1824C39.6285 10.2786 37.937 10.464 36.2583 10.7378C34.1379 11.0988 32.0174 11.4486 29.8997 11.8096C29.504 11.8762 29.1137 11.9873 28.718 12.0706C27.2662 12.3733 27.2635 12.3705 26.5621 13.5895C26.3779 13.9013 26.2103 14.2229 26.06 14.553C25.2167 16.4578 24.439 18.396 23.5275 20.2675C22.6733 22.0224 21.9692 23.8328 21.287 25.6544C20.7412 27.0955 20.2445 28.556 19.7423 30.0138C19.3903 31.0412 19.0737 32.0825 18.7299 33.1127C18.2994 34.2572 18.0071 35.4506 17.8593 36.6669C17.8102 37.25 17.6219 37.822 17.5182 38.4023C17.2188 39.8334 17.3133 41.3207 17.7911 42.7007C17.8262 42.7839 17.8563 42.8692 17.8812 42.9562C18.0231 43.5393 17.7392 44.0224 17.1743 44.0169C16.4184 44.0169 15.6297 43.9613 14.9775 43.5559C14.2658 43.0865 13.5873 42.5669 12.9471 42.001C12.7008 41.802 12.5023 41.5485 12.3666 41.2599C12.2309 40.9712 12.1616 40.6549 12.1639 40.3349C12.1639 39.6546 12.1038 38.9743 12.0684 38.294C12.136 36.474 12.4323 34.6702 12.9498 32.9266C13.7931 29.8722 14.9093 26.8928 15.9845 23.9106C16.9069 21.356 17.8211 18.7931 18.9591 16.3218C19.2047 15.7886 19.4531 15.2555 19.685 14.7168C19.6956 14.6741 19.6959 14.6294 19.6861 14.5864C19.6763 14.5435 19.6566 14.5035 19.6286 14.4699C19.6006 14.4362 19.5651 14.4098 19.5251 14.3929C19.4851 14.376 19.4417 14.369 19.3985 14.3725C18.6644 14.5697 17.9221 14.739 17.2153 14.9862C15.264 15.6637 13.2964 16.3023 11.3916 17.0909C9.2302 17.9823 7.10977 18.968 5.18582 20.3564C4.43828 20.8619 3.80026 21.5177 3.31099 22.2834C2.97805 22.8388 2.67513 23.3941 2.72425 24.0605C2.73 24.1966 2.71807 24.333 2.68877 24.4659C2.67474 24.5682 2.63465 24.6649 2.57248 24.7465C2.51031 24.8281 2.42823 24.8917 2.3344 24.931C2.24058 24.9703 2.13827 24.984 2.03766 24.9706C1.93705 24.9572 1.84164 24.9172 1.76091 24.8547C0.901274 24.0938 0.167172 23.2442 0.0716563 22.0224C0.0716563 21.978 0.0716563 21.9308 0.0580113 21.8863C-0.173954 20.0009 0.273603 18.4127 1.69269 17.0632C2.58267 16.2332 3.57312 15.5222 4.64001 14.9473C6.78634 13.8168 8.99818 12.8199 11.2633 11.9623C14.9366 10.4879 18.7217 9.40495 22.5232 8.36923C24.5563 7.81388 26.6331 7.4418 28.6853 6.96143C30.8685 6.45421 33.0653 6.03307 35.2758 5.69802C36.2037 5.55918 37.137 5.42034 38.0704 5.33704C39.8115 5.16211 41.5389 4.90665 43.2964 4.91776ZM70.1717 11.3292C68.3732 11.3292 66.6076 11.6374 64.8337 11.854C64.8886 11.9154 64.9371 11.9824 64.9784 12.0539C65.0377 12.1302 65.0775 12.2202 65.0943 12.3159C65.1111 12.4116 65.1043 12.5101 65.0746 12.6025C65.0449 12.6949 64.9931 12.7784 64.9239 12.8455C64.8547 12.9125 64.7703 12.9611 64.6782 12.9869C64.6013 13.0207 64.5206 13.045 64.438 13.0591C62.8006 13.2951 61.6053 14.3753 60.4891 15.4027C58.8517 16.8938 57.8584 18.7958 58.3523 21.1755C58.6116 22.4167 59.01 22.6111 60.0662 21.9724C61.1741 21.3032 62.233 20.548 63.341 19.8982C65.1503 18.8486 66.9896 17.8545 68.8181 16.8438C69.2192 16.6217 69.6204 16.3967 70.0297 16.1885L69.8469 16.2829C70.3027 15.1056 70.7693 13.9338 71.2114 12.7509C71.6289 11.6652 71.3315 11.332 70.1717 11.3292ZM136.279 4.48181C136.672 3.29337 136.877 3.09345 138.058 3.42943C138.975 3.68211 139.925 3.86538 140.648 4.61787C141.371 5.37036 141.789 6.23392 141.492 7.3585C141.251 8.26649 141.492 8.52472 142.37 8.54694C142.954 8.5636 143.541 8.54694 144.125 8.54694V8.34979C145.419 8.34979 146.712 8.31925 148.003 8.36923C148.41 8.37385 148.802 8.52428 149.111 8.79407C149.878 9.62709 149.474 10.6434 148.32 10.81C147.501 10.9294 146.655 10.9405 145.82 10.9905C144.406 11.0738 142.992 11.1682 141.576 11.2265C140.654 11.2654 140.026 11.6152 139.649 12.5343C137.987 16.5939 136.014 20.5202 134.901 24.8047C134.467 26.4707 133.758 28.0618 133.236 29.7084C132.627 31.6391 132.056 33.5828 131.522 35.5395C130.922 37.7415 130.376 39.9601 129.825 42.1759C129.609 43.0367 129.41 43.903 129.279 44.7805C129.23 45.0803 129.38 45.4136 129.438 45.7301C129.71 45.5857 130.065 45.508 130.256 45.2858C130.807 44.6503 131.308 43.9716 131.754 43.256C133.159 40.9088 134.538 38.5449 135.892 36.1643C136.779 34.6093 137.641 33.0432 138.509 31.4772C137.944 29.8639 137.884 28.0673 138.258 26.1431C138.945 22.5972 140.373 19.3373 142.815 16.6661C143.997 15.3721 145.432 14.3086 146.791 13.1896C147.454 12.6343 148.254 12.6593 149.056 12.912C149.818 13.1396 150.601 13.2924 151.343 13.5673C152.086 13.8422 152.863 14.1226 153.464 14.5947C154.555 15.4721 154.716 16.7022 154.402 18.0489C153.791 20.6674 152.713 23.0998 151.586 25.51C151.106 26.5911 150.56 27.6401 149.949 28.6504C149.454 29.3821 148.871 30.0472 148.213 30.6303C147.7 31.1106 147.083 31.1856 146.352 30.9079C145.438 30.6019 144.609 30.0805 143.931 29.3863C143.634 29.067 143.274 28.6838 142.87 28.9559C142.564 29.2228 142.369 29.5979 142.324 30.0055C142.193 30.7972 142.167 31.6032 142.247 32.4018C142.458 33.8985 143.298 35.198 145.198 34.8759C146.765 34.5958 148.222 33.8699 149.4 32.7822C151.428 30.9996 153.147 28.9253 154.839 26.8234C155.947 25.435 157.118 24.1244 158.28 22.7943C158.46 22.6495 158.662 22.5359 158.878 22.4583C158.957 22.7194 159.151 23.0137 159.096 23.2358C158.551 25.0518 158.024 26.8761 156.894 28.4394C155.663 30.1443 154.501 31.902 153.21 33.5597C152.426 34.5478 151.551 35.458 150.598 36.2781C149.507 37.2389 148.142 37.461 146.753 37.3888C144.764 37.4999 143.104 36.678 141.614 35.5701C140.67 34.8869 139.864 34.0264 139.237 33.0349C139.138 33.4181 139.018 33.7954 138.877 34.165C137.835 36.8834 136.675 39.563 135.455 42.2175C134.688 43.8122 133.836 45.363 132.903 46.863C132.085 48.2236 130.993 49.301 129.421 49.7952C128.97 49.9629 128.488 50.0275 128.009 49.9843C127.53 49.9411 127.067 49.7912 126.651 49.5453C124.214 48.107 123.169 45.905 123.75 42.9645C124.269 40.3488 124.842 37.7415 125.502 35.1591C125.186 35.52 124.848 35.8603 124.49 36.1782C123 37.5054 120.86 37.4749 119.242 36.2892C118.088 35.4562 117.059 34.426 116.532 33.0266C116.365 32.5104 116.224 31.9858 116.109 31.4549C116.256 29.539 116.802 27.7536 117.348 25.9792C118.068 23.7329 118.775 21.4782 119.564 19.254C120.031 17.9434 120.656 16.6883 121.201 15.4082C121.474 14.7501 121.785 14.1032 122.047 13.4368C122.386 12.5787 122.702 12.3261 123.573 12.5843C124.378 12.7951 125.15 13.1204 125.865 13.5506C127.077 14.3309 127.287 15.4416 126.766 16.7744C125.601 19.7594 124.31 22.6971 123.218 25.7099C122.416 27.9313 121.854 30.2443 121.19 32.5184C121.157 32.5972 121.142 32.6827 121.147 32.7683C121.218 33.1182 121.305 33.4625 121.384 33.8124C121.657 33.6902 122.02 33.6375 122.225 33.432C123.775 31.8964 125.437 30.4664 126.659 28.6199C126.729 28.5139 126.807 28.4145 126.894 28.3228C127.153 28.0451 127.358 28.0118 127.511 28.2062C128.564 25.0102 129.694 21.8364 130.813 18.6653C131.522 16.6772 132.333 14.7279 133.07 12.7509C133.474 11.6708 133.176 11.3376 132.016 11.3348C129.56 11.3348 127.137 11.9179 124.684 12.0401C124.018 12.0734 123.349 12.0678 122.686 12.0401C122.32 12.0206 121.834 11.979 121.843 11.4847C121.843 11.0488 122.309 11.096 122.631 11.046C125.063 10.6822 127.494 10.3102 129.929 9.96029C130.921 9.77857 131.924 9.66171 132.931 9.61042C133.351 9.626 133.766 9.50496 134.114 9.26483C134.462 9.02469 134.727 8.67795 134.868 8.27482C135.392 7.02807 135.856 5.76466 136.279 4.48181ZM103.861 1.61345C104.205 0.663808 104.584 0.480544 105.613 0.760993C106.642 1.04144 107.431 1.74673 108.097 2.54643C108.354 2.82106 108.528 3.16569 108.597 3.53869C108.667 3.91169 108.628 4.29711 108.487 4.64841C108.015 5.80908 107.524 6.97253 107.076 8.13876C106.819 8.80517 106.672 9.52712 106.38 10.1713C105.357 12.4538 104.227 14.6807 103.266 16.9965C102.306 19.3123 101.52 21.6448 100.685 23.98C100.434 24.677 100.253 25.4072 100.041 26.1236L100.292 26.1903C101.809 23.769 103.294 21.331 104.852 18.9347C106.012 17.1437 107.581 15.7498 109.306 14.5197C109.683 14.268 110.108 14.1005 110.554 14.0283C110.999 13.956 111.455 13.9806 111.89 14.1004C112.792 14.3052 113.671 14.6077 114.51 15.0028C116.529 15.9636 117.021 17.8573 117.408 19.7455C117.725 21.2838 117.356 22.7666 117.135 24.2438C116.667 27.1666 115.634 29.9659 114.095 32.4796C113.852 32.9138 113.548 33.3103 113.194 33.6569C112.166 34.6065 111.142 35.5673 110.026 36.4114C108.585 37.5054 106.85 37.3749 105.114 36.8196C103.864 36.4197 102.568 36.1282 101.517 35.1286C101.102 34.7343 100.63 34.7454 100.18 35.2341C99.4512 36.0282 98.5697 36.7474 97.3034 36.2392C96.4253 35.8817 95.6474 35.3095 95.0384 34.5732C93.8922 33.2209 93.6247 31.7965 93.6739 30.3304C92.9125 31.4188 92.1483 32.5045 91.3351 33.5514C90.551 34.5395 89.6765 35.4497 88.7234 36.2698C87.6318 37.2305 86.2673 37.4527 84.8783 37.3805C82.8888 37.4915 81.2296 36.6696 79.7396 35.5617C78.7957 34.8785 77.9889 34.018 77.3626 33.0266C77.2631 33.4098 77.1428 33.787 77.0024 34.1567C75.9599 36.8751 74.8 39.5547 73.5802 42.2092C72.8112 43.8078 71.9566 45.3624 71.0204 46.8658C70.2017 48.2264 69.1101 49.3037 67.5382 49.798C67.0867 49.9657 66.6045 50.0303 66.1258 49.9871C65.6471 49.9439 65.1836 49.794 64.7682 49.5481C62.3312 48.1098 61.286 45.9078 61.8673 42.9673C62.7765 38.188 63.9722 33.4699 65.4478 28.8393C66.5639 25.4294 67.7565 22.0446 68.96 18.6653C69.0564 18.3932 69.1556 18.1211 69.2574 17.849L69.1456 17.9323L68.829 18.1489C67.9639 18.7264 67.0388 19.1735 66.2474 19.9038C65.4559 20.634 64.4489 21.0977 63.5429 21.692C62.8088 22.1723 62.0692 22.6472 61.3597 23.1692C60.2162 24.0022 60.1153 24.4576 60.6965 25.7293C60.9067 26.1903 61.1496 26.6345 61.3597 27.0955C62.8525 30.3609 62.0883 33.2931 59.9952 35.981C59.1055 37.1222 57.782 37.4332 56.4066 37.4971H56.1145H55.5278C53.3446 37.3 51.2706 36.7363 49.5404 35.2757L49.5595 35.2924L49.4803 35.4229C48.3887 37.1361 46.4348 37.5027 44.6172 36.4253L44.4917 36.3475C42.5459 35.1174 41.367 33.3431 41.1842 30.9801C41.1546 30.5813 41.0925 30.1856 40.9986 29.7972C40.9522 29.6112 40.7857 29.3141 40.6793 29.3113C40.5795 29.3199 40.4828 29.3507 40.396 29.4015C40.3092 29.4524 40.2345 29.5221 40.1771 29.6056C38.9409 31.4022 37.7865 33.2654 36.4766 34.9981C35.7234 35.9949 34.741 36.7974 33.311 36.6807C32.2194 36.5919 31.1032 36.7307 30.0989 35.9644C28.3633 34.6426 27.3044 32.9599 27.1816 30.3915C27.0509 28.3366 27.5702 26.2931 28.6635 24.5603C29.8015 22.7332 30.7757 20.7784 32.0256 19.0457C33.0217 17.6574 34.3207 16.5245 35.4942 15.2888C35.8327 14.8678 36.2245 14.4944 36.6595 14.1781C37.3541 13.782 38.146 13.597 38.9409 13.645C41.1275 13.6966 43.2304 14.5101 44.8983 15.9497C45.6952 16.6161 45.9053 16.5606 46.3038 15.672C46.3911 15.4777 46.4784 15.2833 46.563 15.0861C47.1279 13.7727 47.278 13.6978 48.6589 13.8949C50.3181 14.1448 51.7754 16.0441 51.3879 17.6907C51.0604 19.0652 50.4437 20.3453 49.9524 21.6642C49.3466 23.3052 48.7544 24.9518 48.1267 26.5846C47.7447 27.5842 47.2562 28.5283 46.9069 29.5473C46.5734 30.5228 46.3089 31.5212 46.1155 32.5351C46.0527 32.8572 46.301 33.2681 46.4075 33.6458C46.7431 33.5486 47.1579 33.5458 47.4008 33.3348L47.4718 33.2737C47.2344 32.835 47.2917 32.4018 47.6819 31.8715C48.2025 31.1571 48.8105 30.5132 49.4912 29.9555C51.2842 28.5061 53.1317 27.126 54.9493 25.721C55.1812 25.5405 55.4323 25.385 55.6588 25.1962C56.3656 24.6048 56.4775 24.141 56.0763 23.3052C55.6752 22.4695 55.3149 21.7031 54.8865 20.9284C54.3437 19.9948 54.0222 18.9453 53.9474 17.8633C53.8725 16.7813 54.0464 15.6964 54.4553 14.6946C54.982 13.3479 56.0436 12.3288 57.097 11.3625C57.3147 11.1639 57.5494 10.9855 57.7983 10.8294C58.6989 10.2602 59.6104 9.86311 60.7457 10.1102C61.4897 10.2616 62.22 10.4762 62.9289 10.7517C64.6345 10.4962 66.3429 10.238 68.0512 9.99084C69.0393 9.81436 70.0374 9.70214 71.0395 9.65485C71.46 9.67043 71.8744 9.54939 72.2228 9.30925C72.5712 9.06912 72.8354 8.72237 72.9771 8.31925C73.4983 7.07805 73.965 5.82019 74.388 4.52624C74.7809 3.3378 74.9856 3.13787 76.1673 3.47386C77.0842 3.72654 78.0339 3.9098 78.7571 4.6623C79.4803 5.41479 79.8978 6.27835 79.6004 7.40293C79.3602 8.31092 79.6004 8.56915 80.4791 8.59137C81.0631 8.60803 81.6499 8.59137 82.2339 8.59137V8.39422C83.5274 8.39422 84.821 8.36367 86.1118 8.41366C86.5187 8.41828 86.911 8.56871 87.2198 8.8385C87.9866 9.67151 87.5827 10.6878 86.4284 10.8544C85.6096 10.9738 84.7637 10.9849 83.9286 11.0349C82.515 11.1182 81.1013 11.2126 79.685 11.2709C78.7626 11.3098 78.1349 11.6597 77.7583 12.5787C76.14 16.5995 74.1533 20.5257 73.0371 24.7991C72.6032 26.4652 71.8937 28.0562 71.3724 29.7028C70.7629 31.6336 70.1917 33.5773 69.6586 35.534C69.0582 37.7359 68.5124 39.9545 67.9612 42.1703C67.7456 43.0311 67.5436 43.8975 67.4154 44.7749C67.3662 45.0748 67.5163 45.408 67.5736 45.7245C67.8465 45.5802 68.2013 45.5024 68.3923 45.2803C68.9433 44.6447 69.4443 43.966 69.8906 43.2505C71.2951 40.9032 72.6742 38.5393 74.0277 36.1587C74.9147 34.6038 75.777 33.0377 76.6449 31.4716C76.08 29.8583 76.0199 28.0618 76.3938 26.1375C77.0842 22.5916 78.5088 19.3317 80.9512 16.6605C82.1329 15.3666 83.5684 14.3031 84.9274 13.1841C85.5906 12.6287 86.3901 12.6537 87.1925 12.9064C87.9539 13.1341 88.7371 13.2868 89.4794 13.5617C90.2217 13.8366 90.9994 14.1171 91.5998 14.5891C92.6914 15.4665 92.8524 16.6966 92.5386 18.0433C91.9273 20.6618 90.8493 23.0942 89.7223 25.5044C89.2426 26.5856 88.6957 27.6345 88.0849 28.6449C87.593 29.376 87.0126 30.0412 86.3574 30.6247C85.8443 31.1051 85.2276 31.18 84.4962 30.9024C83.5828 30.5963 82.7533 30.0749 82.0756 29.3807C81.7781 29.0614 81.4179 28.6782 81.014 28.9503C80.708 29.2172 80.5129 29.5924 80.4682 29.9999C80.3373 30.7916 80.3116 31.5976 80.3918 32.3963C80.6019 33.8929 81.4425 35.1924 83.3419 34.8703C84.9089 34.5902 86.366 33.8644 87.5445 32.7767C89.5722 30.994 91.2914 28.9198 92.9834 26.8178C93.5292 26.1292 94.1105 25.4517 94.6891 24.7797C95.3955 22.2001 96.2483 19.6644 97.2434 17.1853C98.0639 15.0713 98.9308 12.9795 99.8441 10.9099C100.636 9.11339 101.553 7.38349 102.344 5.58972C102.751 4.66507 103.111 3.71266 103.457 2.75746L103.861 1.61345Z" fill="black"/>
</svg>
